Coordinates
version=1
nRows=12
nColumns=24
inDegrees=yes

Units are S.I. units (second, meters, Newtons, ...)
Angles are in degrees.

endheader
time	pelvis_tilt	pelvis_list	pelvis_rotation	pelvis_tx	pelvis_ty	pelvis_tz	hip_flexion_r	hip_adduction_r	hip_rotation_r	knee_angle_r	ankle_angle_r	subtalar_angle_r	mtp_angle_r	hip_flexion_l	hip_adduction_l	hip_rotation_l	knee_angle_l	ankle_angle_l	subtalar_angle_l	mtp_angle_l	lumbar_extension	lumbar_bending	lumbar_rotation
      3.77000000	    -10.26634953	     -0.33876492	      5.49355861	     -1.75970124	     -0.02109594	     -0.76853472	     31.80593687	     -0.75790961	    -12.53843689	    -11.95599194	     -5.33070354	     -4.18704629	     12.77990959	     -5.72924797	      2.76240157	    -12.39880812	    -12.43813115	      8.75310977	      8.98872490	     11.98801657	      8.55336376	      1.94979253	     -9.90919354
      3.77500000	    -10.27693295	     -0.48932700	      5.43613353	     -1.75309180	     -0.02152875	     -0.76796966	     31.80451658	     -0.45221843	    -11.80285586	    -12.54894905	     -5.86937194	     -5.14227737	     12.00244898	     -5.76706081	      2.39931343	    -12.53242818	    -13.12356414	      8.39768940	      9.26636122	     11.97428804	      8.76776609	      2.14381456	    -10.03950039
      3.78000000	    -10.30096262	     -0.66143724	      5.35681369	     -1.74647140	     -0.02188821	     -0.76730466	     31.82492805	     -0.12220114	    -11.15184110	    -13.14636962	     -6.45262160	     -6.11952718	     10.97302911	     -5.75735209	      1.99534648	    -12.71714084	    -13.86427180	      7.99264802	      9.63587455	     11.96216214	      8.99207617	      2.35112665	    -10.07208107
      3.78500000	    -10.33405542	     -0.85312204	      5.31309885	     -1.73983247	     -0.02219163	     -0.76667505	     31.84518725	      0.19216535	    -10.57942734	    -13.73323129	     -6.99918980	     -7.13122826	      9.98444815	     -5.69483854	      1.56274199	    -12.86904658	    -14.66789656	      7.52158586	      9.93933215	     11.93338910	      9.23752363	      2.57233806	    -10.20516655
      3.79000000	    -10.37719059	     -1.09601673	      5.17220977	     -1.73315179	     -0.02247249	     -0.76593032	     31.89891549	      0.59860349	    -10.02859373	    -14.36820459	     -7.46374319	     -8.07702460	      8.37976054	     -5.60343030	      1.07041268	    -13.12130969	    -15.51189467	      7.06141938	     10.29087911	     11.92964731	      9.49233048	      2.87155887	    -10.20521774
      3.79500000	    -10.42072224	     -1.33076395	      5.26363658	     -1.72647025	     -0.02259128	     -0.76551351	     31.90107017	      0.83129187	     -9.89931007	    -14.92226630	     -7.90328321	     -9.00095033	      7.87892483	     -5.44268886	      0.58498446	    -13.02319222	    -16.42058692	      6.41784150	     10.42171096	     11.86413801	      9.76754781	      3.11360868	    -10.47586215
      3.80000000	    -10.45936164	     -1.56704046	      5.07976080	     -1.71972921	     -0.02272775	     -0.76461573	     31.91196971	      1.27061517	     -9.25561571	    -15.56237461	     -8.01295918	     -9.90247053	      5.21555004	     -5.27670653	      0.05847883	    -13.47019459	    -17.39585001	      5.79725862	     10.86805887	     11.90512644	     10.02036058	      3.40258442	    -10.46614814
      3.80500000	    -10.51035107	     -1.74837062	      5.08697107	     -1.71317108	     -0.02275786	     -0.76406068	     31.91074479	      1.49734576	     -9.03991357	    -16.10445814	     -8.31760623	    -10.84854986	      4.76322650	     -5.01936329	     -0.38141682	    -13.44704913	    -18.43954198	      5.01680767	     10.95673461	     11.83691000	     10.25987637	      3.60390419	    -10.63355483
      3.81000000	    -10.57189661	     -1.89898852	      4.89380968	     -1.70645047	     -0.02279961	     -0.76310675	     31.90879400	      1.84875483	     -8.53332493	    -16.68041020	     -8.33403834	    -11.74853829	      3.18250508	     -4.75177489	     -0.83371619	    -13.87071083	    -19.52370082	      4.18150400	     11.32927049	     11.90026874	     10.51999731	      3.79557126	    -10.55286652
      3.81500000	    -10.61322307	     -2.09658451	      4.83979914	     -1.69980804	     -0.02272193	     -0.76240991	     31.84380077	      2.15752486	     -8.26258555	    -17.21103404	     -8.18028759	    -12.40122106	      1.62757855	     -4.41329210	     -1.32644477	    -13.98790165	    -20.70137441	      3.22091987	     11.39458174	     12.10433564	     10.75707367	      4.02336771	    -10.64115383
      3.82000000	    -10.60474236	     -2.26991058	      4.85483063	     -1.69319687	     -0.02247642	     -0.76187251	     31.66842568	      2.38895831	     -8.16382398	    -17.61894705	     -8.09701450	    -12.95031621	      1.29053489	     -4.06835331	     -1.79160538	    -13.95907228	    -21.94602389	      2.15976724	     11.38739464	     12.09158670	     10.93831835	      4.22272579	    -10.81397188
      3.82500000	    -10.64008896	     -2.38158517	      4.76671230	     -1.68662515	     -0.02228864	     -0.76107608	     31.52645809	      2.65768844	     -7.81339569	    -18.01945168	     -7.88824705	    -13.58379371	      0.56112576	     -3.63927334	     -2.21070547	    -14.08585307	    -23.24755792	      0.96926048	     11.39513070	     12.34852565	     11.14581872	      4.35952278	    -10.85646060
